<svg xmlns="http://www.w3.org/2000/svg" viewBox="0 0 48 48" width="100%" height="100%">
  <defs>
    <linearGradient id="bunTop" x1="0%" y1="0%" x2="0%" y2="100%">
      <stop offset="0%" stop-color="#f59e0b"/>
      <stop offset="100%" stop-color="#d97706"/>
    </linearGradient>
    <linearGradient id="patty" x1="0%" y1="0%" x2="0%" y2="100%">
      <stop offset="0%" stop-color="#78350f"/>
      <stop offset="100%" stop-color="#451a03"/>
    </linearGradient>
  </defs>
  <!-- Top Bun -->
  <path d="M7 21 C7 11 15 6 24 6 C33 6 41 11 41 21 L7 21 Z" fill="url(#bunTop)"/>
  <!-- Sesame seeds -->
  <circle cx="16" cy="13" r="1" fill="#fef3c7"/>
  <circle cx="24" cy="10" r="1" fill="#fef3c7"/>
  <circle cx="32" cy="14" r="1" fill="#fef3c7"/>
  <circle cx="21" cy="16" r="1" fill="#fef3c7"/>
  <circle cx="28" cy="17" r="1" fill="#fef3c7"/>
  <!-- Lettuce -->
  <path d="M5 21 C7 23 9 21 11 23 C13 21 15 23 17 21 C19 23 21 21 23 23 C25 21 27 23 29 21 C31 23 33 21 35 23 C37 21 39 23 41 21 C43 23 44 21 44 21 L44 24 L4 24 L4 21 Z" fill="#22c55e"/>
  <!-- Cheese -->
  <polygon points="6,24 42,24 38,29 24,31 10,29" fill="#eab308"/>
  <!-- Patty -->
  <rect x="5" y="27" width="38" height="7" rx="3.5" fill="url(#patty)"/>
  <!-- Bottom Bun -->
  <path d="M7 36 L41 36 C41 40 34 43 24 43 C14 43 7 40 7 36 Z" fill="url(#bunTop)"/>
</svg>
