<svg xmlns="http://www.w3.org/2000/svg" viewBox="0 0 48 48" width="100%" height="100%">
  <defs>
    <linearGradient id="shirtGrad" x1="0%" y1="0%" x2="100%" y2="100%">
      <stop offset="0%" stop-color="#ec4899"/>
      <stop offset="100%" stop-color="#be185d"/>
    </linearGradient>
  </defs>
  <!-- T-shirt body -->
  <path d="M16 6 L20 12 C21.5 13 26.5 13 28 12 L32 6 L44 14 L39 23 L34 20 L34 42 C34 43 33 44 32 44 L16 44 C15 44 14 43 14 42 L14 20 L9 23 L4 14 Z" fill="url(#shirtGrad)"/>
  <!-- Collar -->
  <path d="M19 6 C21 11 27 11 29 6" fill="none" stroke="#fce7f3" stroke-width="2.5" stroke-linecap="round"/>
  <!-- Sleeve folds -->
  <path d="M14 20 L9 23" stroke="#9d174d" stroke-width="1.5"/>
  <path d="M34 20 L39 23" stroke="#9d174d" stroke-width="1.5"/>
  <!-- Accent heart on chest -->
  <path d="M24 23 C24 21 21.5 19 20 21 C18.5 23 24 27 24 27 C24 27 29.5 23 28 21 C26.5 19 24 21 24 23 Z" fill="#fdf2f8" opacity="0.9"/>
</svg>
