<svg xmlns="http://www.w3.org/2000/svg" viewBox="0 0 48 48" width="100%" height="100%">
  <defs>
    <linearGradient id="truckCargo" x1="0%" y1="0%" x2="100%" y2="100%">
      <stop offset="0%" stop-color="#0ea5e9"/>
      <stop offset="100%" stop-color="#0284c7"/>
    </linearGradient>
    <linearGradient id="truckCab" x1="0%" y1="0%" x2="100%" y2="100%">
      <stop offset="0%" stop-color="#38bdf8"/>
      <stop offset="100%" stop-color="#0ea5e9"/>
    </linearGradient>
  </defs>
  <!-- Cargo Container -->
  <rect x="4" y="10" width="25" height="23" rx="3" fill="url(#truckCargo)"/>
  <line x1="12" y1="12" x2="12" y2="31" stroke="#e0f2fe" stroke-width="1.5" opacity="0.5"/>
  <line x1="20" y1="12" x2="20" y2="31" stroke="#e0f2fe" stroke-width="1.5" opacity="0.5"/>
  <!-- Cab -->
  <path d="M29 18 L38 18 C39.5 18 41 19.5 42 21.5 L44 26 L44 33 L29 33 Z" fill="url(#truckCab)"/>
  <!-- Window -->
  <path d="M31 20 L37 20 C38 20 39 21 39.5 22 L41 25 L31 25 Z" fill="#0369a1"/>
  <!-- Bumper & Chassis -->
  <rect x="4" y="32" width="41" height="4" rx="1.5" fill="#475569"/>
  <!-- Wheels -->
  <circle cx="13" cy="36" r="6" fill="#1e293b"/>
  <circle cx="13" cy="36" r="2.5" fill="#e2e8f0"/>
  <circle cx="36" cy="36" r="6" fill="#1e293b"/>
  <circle cx="36" cy="36" r="2.5" fill="#e2e8f0"/>
</svg>
